<svg role="img" viewBox="0 0 24 24" xmlns="http://www.w3.org/2000/svg"><title>LangGraph</title><path fill="#00A3E0" d="M12 2C6.48 2 2 6.48 2 12s4.48 10 10 10 10-4.48 10-10S17.52 2 12 2zm0 18c-4.41 0-8-3.59-8-8s3.59-8 8-8 8 3.59 8 8-3.59 8-8 8zm-1-13h2v6h-2zm0 8h2v2h-2z"/><circle fill="#00A3E0" cx="7" cy="12" r="2"/><circle fill="#00A3E0" cx="17" cy="12" r="2"/><circle fill="#00A3E0" cx="12" cy="7" r="2"/><circle fill="#00A3E0" cx="12" cy="17" r="2"/><line stroke="#00A3E0" stroke-width="1.5" x1="9" y1="12" x2="11" y2="12"/><line stroke="#00A3E0" stroke-width="1.5" x1="13" y1="12" x2="15" y2="12"/><line stroke="#00A3E0" stroke-width="1.5" x1="12" y1="9" x2="12" y2="11"/><line stroke="#00A3E0" stroke-width="1.5" x1="12" y1="13" x2="12" y2="15"/></svg>